<svg xmlns="http://www.w3.org/2000/svg" xmlns:xlink="http://www.w3.org/1999/xlink" width="231.19200134277344" height="53.71199035644531" viewBox="0 0 231.19200134277344 53.71199035644531" fill="none">
<g >
<path     fill="#000000"  d="M1.43051e-06 52.776L28.944 52.776L28.944 47.304L18.36 47.304L18.36 -3.8147e-06L13.32 -3.8147e-06C10.44 1.65599 7.056 2.87999 2.376 3.744L2.376 7.91999L11.808 7.91999L11.808 47.304L1.43051e-06 47.304L1.43051e-06 52.776ZM39.96 52.776L68.904 52.776L68.904 47.304L58.32 47.304L58.32 -3.8147e-06L53.28 -3.8147e-06C50.4 1.65599 47.016 2.87999 42.336 3.744L42.336 7.91999L51.768 7.91999L51.768 47.304L39.96 47.304L39.96 52.776ZM98.064 52.776L104.256 52.776L104.256 38.232L111.312 38.232L111.312 32.976L104.256 32.976L104.256 -3.8147e-06L96.984 -3.8147e-06L75.024 33.912L75.024 38.232L98.064 38.232L98.064 52.776ZM98.064 32.976L81.864 32.976L93.888 14.976C95.4 12.384 96.84 9.71999 98.136 7.19999L98.424 7.19999C98.28 9.86399 98.064 14.184 98.064 16.776L98.064 32.976ZM132.408 53.712C141.264 53.712 149.688 47.16 149.688 35.64C149.688 23.976 142.488 18.792 133.776 18.792C130.608 18.792 128.232 19.584 125.856 20.88L127.224 5.61599L147.096 5.61599L147.096 -3.8147e-06L121.464 -3.8147e-06L119.736 24.624L123.264 26.856C126.288 24.84 128.52 23.76 132.048 23.76C138.672 23.76 142.992 28.224 142.992 35.784C142.992 43.488 138.024 48.24 131.76 48.24C125.64 48.24 121.752 45.432 118.8 42.408L115.488 46.728C119.088 50.256 124.128 53.712 132.408 53.712ZM159.84 52.776L188.784 52.776L188.784 47.304L178.2 47.304L178.2 -3.8147e-06L173.16 -3.8147e-06C170.28 1.65599 166.896 2.87999 162.216 3.744L162.216 7.91999L171.648 7.91999L171.648 47.304L159.84 47.304L159.84 52.776ZM217.944 52.776L224.136 52.776L224.136 38.232L231.192 38.232L231.192 32.976L224.136 32.976L224.136 -3.8147e-06L216.864 -3.8147e-06L194.904 33.912L194.904 38.232L217.944 38.232L217.944 52.776ZM217.944 32.976L201.744 32.976L213.768 14.976C215.28 12.384 216.72 9.71999 218.016 7.19999L218.304 7.19999C218.16 9.86399 217.944 14.184 217.944 16.776L217.944 32.976Z">
</path>
</g>
</svg>
